<svg width="200" height="80" viewBox="0 0 200 80" fill="none" xmlns="http://www.w3.org/2000/svg">
<circle cx="40" cy="40" r="38" fill="white" stroke="#4C1D95" stroke-width="4"/>
<path d="M35.6923 37.6539C35.9473 37.6539 36.1919 37.7552 36.3722 37.9355C36.5525 38.1158 36.6539 38.3604 36.6539 38.6154V50.1539C36.6539 50.4089 36.5525 50.6535 36.3722 50.8338C36.1919 51.0141 35.9473 51.1154 35.6923 51.1154C35.4373 51.1154 35.1927 51.0141 35.0124 50.8338C34.8321 50.6535 34.7308 50.4089 34.7308 50.1539V38.6154C34.7308 38.3604 34.8321 38.1158 35.0124 37.9355C35.1927 37.7552 35.4373 37.6539 35.6923 37.6539V37.6539ZM40.5 37.6539C40.755 37.6539 40.9996 37.7552 41.1799 37.9355C41.3602 38.1158 41.4615 38.3604 41.4615 38.6154V50.1539C41.4615 50.4089 41.3602 50.6535 41.1799 50.8338C40.9996 51.0141 40.755 51.1154 40.5 51.1154C40.245 51.1154 40.0004 51.0141 39.8201 50.8338C39.6398 50.6535 39.5385 50.4089 39.5385 50.1539V38.6154C39.5385 38.3604 39.6398 38.1158 39.8201 37.9355C40.0004 37.7552 40.245 37.6539 40.5 37.6539V37.6539ZM46.2692 38.6154C46.2692 38.3604 46.1679 38.1158 45.9876 37.9355C45.8073 37.7552 45.5627 37.6539 45.3077 37.6539C45.0527 37.6539 44.8081 37.7552 44.6278 37.9355C44.4475 38.1158 44.3462 38.3604 44.3462 38.6154V50.1539C44.3462 50.4089 44.4475 50.6535 44.6278 50.8338C44.8081 51.0141 45.0527 51.1154 45.3077 51.1154C45.5627 51.1154 45.8073 51.0141 45.9876 50.8338C46.1679 50.6535 46.2692 50.4089 46.2692 50.1539V38.6154Z" fill="#4C1D95"/>
<path fill-rule="evenodd" clip-rule="evenodd" d="M53 32.8462C53 33.3562 52.7974 33.8453 52.4367 34.206C52.0761 34.5666 51.587 34.7692 51.0769 34.7692H50.1154V52.0769C50.1154 53.097 49.7102 54.0753 48.9889 54.7966C48.2676 55.5179 47.2893 55.9231 46.2692 55.9231H34.7308C33.7107 55.9231 32.7324 55.5179 32.0111 54.7966C31.2898 54.0753 30.8846 53.097 30.8846 52.0769V34.7692H29.9231C29.413 34.7692 28.9239 34.5666 28.5633 34.206C28.2026 33.8453 28 33.3562 28 32.8462V30.9231C28 30.4131 28.2026 29.9239 28.5633 29.5633C28.9239 29.2026 29.413 29 29.9231 29H36.6538C36.6538 28.49 36.8565 28.0008 37.2171 27.6402C37.5777 27.2795 38.0669 27.0769 38.5769 27.0769H42.4231C42.9331 27.0769 43.4222 27.2795 43.7829 27.6402C44.1435 28.0008 44.3462 28.49 44.3462 29H51.0769C51.587 29 52.0761 29.2026 52.4367 29.5633C52.7974 29.9239 53 30.4131 53 30.9231V32.8462ZM33.0346 34.7692L32.8077 34.8827V52.0769C32.8077 52.587 33.0103 53.0761 33.3709 53.4368C33.7316 53.7974 34.2207 54 34.7308 54H46.2692C46.7793 54 47.2684 53.7974 47.6291 53.4368C47.9897 53.0761 48.1923 52.587 48.1923 52.0769V34.8827L47.9654 34.7692H33.0346ZM29.9231 32.8462V30.9231H51.0769V32.8462H29.9231Z" fill="#4C1D95"/>
<circle cx="80" cy="40" r="38" fill="white" stroke="#4C1D95" stroke-width="4"/>
<path fill-rule="evenodd" clip-rule="evenodd" d="M85.3003 38.414C85.3867 38.5003 85.4554 38.6027 85.5022 38.7155C85.549 38.8284 85.5731 38.9493 85.5731 39.0714C85.5731 39.1936 85.549 39.3145 85.5022 39.4273C85.4554 39.5401 85.3867 39.6426 85.3003 39.7289L79.7288 45.3003C79.6426 45.3868 79.5401 45.4554 79.4273 45.5022C79.3145 45.549 79.1936 45.5731 79.0714 45.5731C78.9493 45.5731 78.8283 45.549 78.7155 45.5022C78.6027 45.4554 78.5002 45.3868 78.414 45.3003L75.6283 42.5146C75.5419 42.4282 75.4735 42.3257 75.4267 42.2129C75.38 42.1001 75.356 41.9792 75.356 41.8571C75.356 41.7351 75.38 41.6142 75.4267 41.5014C75.4735 41.3886 75.5419 41.2861 75.6283 41.1997C75.8026 41.0254 76.0391 40.9274 76.2857 40.9274C76.4078 40.9274 76.5287 40.9515 76.6415 40.9982C76.7543 41.0449 76.8568 41.1134 76.9431 41.1997L79.0714 43.3299L83.9854 38.414C84.0717 38.3275 84.1741 38.2589 84.287 38.2121C84.3998 38.1653 84.5207 38.1412 84.6428 38.1412C84.765 38.1412 84.8859 38.1653 84.9987 38.2121C85.1115 38.2589 85.214 38.3275 85.3003 38.414V38.414Z" fill="#4C1D95"/>
<path d="M72.5714 27.9286H70.7143C69.7292 27.9286 68.7845 28.3199 68.0879 29.0164C67.3913 29.713 67 30.6578 67 31.6428V51.1428C67 52.1279 67.3913 53.0727 68.0879 53.7692C68.7845 54.4658 69.7292 54.8571 70.7143 54.8571H89.2857C90.2708 54.8571 91.2155 54.4658 91.9121 53.7692C92.6087 53.0727 93 52.1279 93 51.1428V31.6428C93 30.6578 92.6087 29.713 91.9121 29.0164C91.2155 28.3199 90.2708 27.9286 89.2857 27.9286H87.4286V29.7857H89.2857C89.7783 29.7857 90.2506 29.9814 90.5989 30.3296C90.9472 30.6779 91.1429 31.1503 91.1429 31.6428V51.1428C91.1429 51.6354 90.9472 52.1078 90.5989 52.456C90.2506 52.8043 89.7783 53 89.2857 53H70.7143C70.2217 53 69.7494 52.8043 69.4011 52.456C69.0528 52.1078 68.8571 51.6354 68.8571 51.1428V31.6428C68.8571 31.1503 69.0528 30.6779 69.4011 30.3296C69.7494 29.9814 70.2217 29.7857 70.7143 29.7857H72.5714V27.9286Z" fill="#4C1D95"/>
<path d="M82.7857 27C83.032 27 83.2682 27.0978 83.4423 27.272C83.6165 27.4461 83.7143 27.6823 83.7143 27.9286V29.7857C83.7143 30.032 83.6165 30.2682 83.4423 30.4423C83.2682 30.6164 83.032 30.7143 82.7857 30.7143H77.2143C76.968 30.7143 76.7318 30.6164 76.5577 30.4423C76.3836 30.2682 76.2857 30.032 76.2857 29.7857V27.9286C76.2857 27.6823 76.3836 27.4461 76.5577 27.272C76.7318 27.0978 76.968 27 77.2143 27H82.7857ZM77.2143 25.1429C76.4755 25.1429 75.7669 25.4363 75.2445 25.9588C74.7221 26.4812 74.4286 27.1897 74.4286 27.9286V29.7857C74.4286 30.5245 74.7221 31.2331 75.2445 31.7555C75.7669 32.2779 76.4755 32.5714 77.2143 32.5714H82.7857C83.5245 32.5714 84.2331 32.2779 84.7555 31.7555C85.278 31.2331 85.5714 30.5245 85.5714 29.7857V27.9286C85.5714 27.1897 85.278 26.4812 84.7555 25.9588C84.2331 25.4363 83.5245 25.1429 82.7857 25.1429H77.2143Z" fill="#4C1D95"/>
<circle cx="120" cy="40" r="38" fill="white" stroke="#4C1D95" stroke-width="4"/>
<path d="M127.887 27.2379C127.734 27.0856 127.528 27 127.312 27C127.097 27 126.89 27.0856 126.738 27.2379L124.061 29.9142L130.085 35.938L132.761 33.2633C132.837 33.1878 132.897 33.0982 132.938 32.9995C132.979 32.9008 133 32.7949 133 32.6881C133 32.5812 132.979 32.4754 132.938 32.3767C132.897 32.278 132.837 32.1883 132.761 32.1128L127.887 27.2379V27.2379ZM128.936 37.0869L122.913 31.0631L112.351 41.6255H112.687C112.902 41.6255 113.109 41.7111 113.261 41.8634C113.414 42.0158 113.499 42.2225 113.499 42.4379V43.2504H114.312C114.527 43.2504 114.734 43.336 114.886 43.4884C115.039 43.6408 115.124 43.8474 115.124 44.0629V44.8754H115.937C116.152 44.8754 116.359 44.961 116.511 45.1134C116.664 45.2658 116.749 45.4724 116.749 45.6879V46.5004H117.562C117.777 46.5004 117.984 46.586 118.136 46.7384C118.289 46.8907 118.374 47.0974 118.374 47.3129V47.6493L128.936 37.0869V37.0869ZM116.801 49.2222C116.767 49.1313 116.749 49.035 116.749 48.9379V48.1254H115.937C115.721 48.1254 115.515 48.0398 115.362 47.8874C115.21 47.735 115.124 47.5284 115.124 47.3129V46.5004H114.312C114.096 46.5004 113.89 46.4148 113.737 46.2624C113.585 46.1101 113.499 45.9034 113.499 45.6879V44.8754H112.687C112.471 44.8754 112.265 44.7898 112.112 44.6374C111.96 44.4851 111.874 44.2784 111.874 44.0629V43.2504H111.062C110.965 43.2503 110.869 43.2327 110.778 43.1984L110.487 43.4877C110.409 43.5657 110.349 43.6585 110.308 43.7607L107.058 51.8856C106.999 52.0332 106.985 52.195 107.017 52.3508C107.049 52.5066 107.126 52.6496 107.238 52.762C107.35 52.8745 107.493 52.9515 107.649 52.9834C107.805 53.0154 107.967 53.0009 108.114 52.9418L116.239 49.6919C116.341 49.6513 116.434 49.5905 116.512 49.5131L116.801 49.2239V49.2222Z" fill="#4C1D95"/>
<circle cx="160" cy="40" r="38" fill="white" stroke="#4C1D95" stroke-width="4"/>
<path d="M145 40.86L147.286 38.52L155.228 46.32L171.654 30L174 32.34L155.228 51L145 40.86Z" fill="#4C1D95"/>
</svg>
